<?xml version="1.0" encoding="utf-8"?>
<svg shape-rendering="geometricPrecision" text-rendering="geometricPrecision" image-rendering="optimizeQuality" fill-rule="evenodd" clip-rule="evenodd" viewBox="0 0 426 511.52" xmlns="http://www.w3.org/2000/svg">
  <path fill-rule="nonzero" d="M354.28 116.71h-32.07v50.74H299.4v-62.08c0-3.13 1.28-5.98 3.34-8.03 2.06-2.07 4.89-3.34 8.03-3.34h43.84c4.77-12.57 16.92-21.51 31.16-21.51 18.4 0 33.31 14.92 33.31 33.32s-14.91 33.32-33.31 33.32c-14.58 0-26.98-9.37-31.49-22.42zM180.25 360.67c2.41-2.42 6.34-2.42 8.76 0 2.42 2.41 2.42 6.34 0 8.76s-6.35 2.42-8.76 0c-2.42-2.42-2.42-6.35 0-8.76zm-13.53 32.73c0-3.42 2.78-6.2 6.2-6.2 3.42 0 6.19 2.78 6.19 6.2 0 3.42-2.77 6.19-6.19 6.19-3.42 0-6.2-2.77-6.2-6.19zm13.59 32.7c-2.42-2.41-2.42-6.34 0-8.76a6.21 6.21 0 0 1 8.76 0c2.42 2.42 2.42 6.35 0 8.76a6.192 6.192 0 0 1-8.76 0zm32.73 13.53c-3.42 0-6.19-2.78-6.19-6.2 0-3.42 2.77-6.19 6.19-6.19 3.42 0 6.2 2.77 6.2 6.19 0 3.42-2.78 6.2-6.2 6.2zm32.71-13.59c-2.42 2.42-6.35 2.42-8.76 0-2.42-2.41-2.42-6.34 0-8.76 2.41-2.42 6.34-2.42 8.76 0 2.41 2.42 2.41 6.35 0 8.76zm13.52-32.73a6.19 6.19 0 0 1-6.2 6.19c-3.42 0-6.19-2.77-6.19-6.19 0-3.42 2.77-6.19 6.19-6.19 3.43 0 6.2 2.77 6.2 6.19zm-13.59-32.71a6.205 6.205 0 0 1 0 8.77c-2.41 2.41-6.34 2.41-8.76 0a6.223 6.223 0 0 1 0-8.77c2.42-2.41 6.35-2.41 8.76 0zm-32.73-13.52c3.42 0 6.2 2.78 6.2 6.2 0 3.42-2.78 6.19-6.2 6.19-3.42 0-6.19-2.77-6.19-6.19 0-3.42 2.77-6.2 6.19-6.2zm0 22.52c13.15 0 23.8 10.66 23.8 23.8 0 13.15-10.65 23.81-23.8 23.81-13.14 0-23.8-10.66-23.8-23.81 0-13.14 10.66-23.8 23.8-23.8zm.05-49.22c20.15 0 38.4 8.17 51.6 21.37 13.2 13.2 21.37 31.45 21.37 51.6 0 20.16-8.17 38.4-21.37 51.6-13.2 13.21-31.45 21.38-51.6 21.38-20.15 0-38.4-8.17-51.6-21.38-13.2-13.2-21.37-31.44-21.37-51.6 0-20.15 8.17-38.4 21.37-51.6 13.2-13.2 31.45-21.37 51.6-21.37zm44.32 28.65c-11.34-11.34-27.01-18.36-44.32-18.36s-32.98 7.02-44.32 18.36c-11.34 11.34-18.36 27.01-18.36 44.32s7.02 32.99 18.36 44.32c11.34 11.34 27.01 18.36 44.32 18.36s32.98-7.02 44.32-18.36c11.34-11.33 18.36-27.01 18.36-44.32s-7.02-32.98-18.36-44.32zm151.66-50.85c-2.91 55.25-22.62 109.11-56.7 148.84-33.48 39.05-80.67 64.5-139.28 64.5s-105.8-25.45-139.29-64.5c-34.07-39.73-53.78-93.58-56.69-148.83C7 293.56 0 283.4 0 271.69v-79.52h426v79.5c0 11.72-7 21.88-17.02 26.51zm-69.66 137.75c30.86-35.99 49.03-84.71 52.36-135.07H34.31c3.34 50.36 21.51 99.08 52.37 135.07 30.36 35.41 73.16 58.49 126.32 58.49s95.96-23.08 126.32-58.49zM120.47 124.67v42.78H97.69v-31.42H71.66C67.1 149 54.75 158.3 40.23 158.3c-18.4 0-33.32-14.93-33.32-33.32 0-18.4 14.92-33.33 33.32-33.33 14.29 0 26.47 9 31.21 21.64h37.66c3.14 0 5.97 1.27 8.03 3.33a11.36 11.36 0 0 1 3.34 8.05zM62.42 0C44.02 0 29.1 14.91 29.1 33.32c0 18.4 14.92 33.31 33.32 33.31 13.62 0 25.33-8.17 30.5-19.87h66.63v120.69h22.75V35.42c0-3.13-1.28-5.98-3.34-8.04-2.06-2.06-4.9-3.33-8.03-3.33h-76.5C90.42 10.15 77.61 0 62.42 0zM247 .56c-18.41 0-33.32 14.92-33.32 33.32 0 14.41 9.14 26.68 21.95 31.33v102.24h22.74V65.21c12.8-4.65 21.94-16.93 21.94-31.33C280.31 15.48 265.4.56 247 .56z" style="fill: rgb(252, 127, 127);"/>
</svg>