<svg id="Layer_1" data-name="Layer 1" xmlns="http://www.w3.org/2000/svg" viewBox="0 0 112.16 122.88"><defs><style>.cls-1{fill-rule:evenodd;}</style></defs><title>film-camera</title><path class="cls-1" d="M14.76,47.89H71.34a9.56,9.56,0,0,1,9.54,9.53V93a9.58,9.58,0,0,1-9.54,9.54H53.86l12.7,20.37H54.73L40.89,104.27l-14,18.61h-12l12.62-20.37H14.76A9.57,9.57,0,0,1,5.22,93V57.42a9.56,9.56,0,0,1,9.54-9.53Zm.24-38a15,15,0,1,1-15,15,15,15,0,0,1,15-15ZM5.27,24.93A3.05,3.05,0,1,1,8.32,28a3,3,0,0,1-3.05-3.05Zm9.81,9.66a3.06,3.06,0,1,1,3-3.06,3.05,3.05,0,0,1-3,3.06Zm9.66-9.82a3.06,3.06,0,1,1-3-3.05,3.06,3.06,0,0,1,3,3.05Zm-9.82-9.66a3.06,3.06,0,1,1-3.05,3.06,3.06,3.06,0,0,1,3.05-3.06ZM61.06,0A19.89,19.89,0,1,1,41.17,19.89,19.88,19.88,0,0,1,61.06,0Zm-.12,5.8a4.44,4.44,0,1,1-4.44,4.44A4.44,4.44,0,0,1,60.94,5.8ZM46.88,20.08a4.45,4.45,0,1,1,4.44,4.44,4.44,4.44,0,0,1-4.44-4.44ZM61.17,34.14a4.44,4.44,0,1,1,4.44-4.44,4.44,4.44,0,0,1-4.44,4.44Zm14-14.28a4.44,4.44,0,1,1-4.44-4.45,4.44,4.44,0,0,1,4.44,4.45ZM86.3,91V60.38l25.86-15.24v61.51L86.3,91Z"/></svg>